<svg id="visual" viewBox="0 0 900 600" width="900" height="600" xmlns="http://www.w3.org/2000/svg" xmlns:xlink="http://www.w3.org/1999/xlink" version="1.1"><rect x="0" y="0" width="900" height="600" fill="#3fcfcf"></rect><defs><linearGradient id="grad1_0" x1="33.3%" y1="0%" x2="100%" y2="100%"><stop offset="20%" stop-color="#2b9191" stop-opacity="1"></stop><stop offset="80%" stop-color="#2b9191" stop-opacity="1"></stop></linearGradient></defs><defs><linearGradient id="grad1_1" x1="33.3%" y1="0%" x2="100%" y2="100%"><stop offset="20%" stop-color="#2b9191" stop-opacity="1"></stop><stop offset="80%" stop-color="#2e9a9a" stop-opacity="1"></stop></linearGradient></defs><defs><linearGradient id="grad1_2" x1="33.3%" y1="0%" x2="100%" y2="100%"><stop offset="20%" stop-color="#31a2a2" stop-opacity="1"></stop><stop offset="80%" stop-color="#2e9a9a" stop-opacity="1"></stop></linearGradient></defs><defs><linearGradient id="grad1_3" x1="33.3%" y1="0%" x2="100%" y2="100%"><stop offset="20%" stop-color="#31a2a2" stop-opacity="1"></stop><stop offset="80%" stop-color="#33abab" stop-opacity="1"></stop></linearGradient></defs><defs><linearGradient id="grad1_4" x1="33.3%" y1="0%" x2="100%" y2="100%"><stop offset="20%" stop-color="#36b4b4" stop-opacity="1"></stop><stop offset="80%" stop-color="#33abab" stop-opacity="1"></stop></linearGradient></defs><defs><linearGradient id="grad1_5" x1="33.3%" y1="0%" x2="100%" y2="100%"><stop offset="20%" stop-color="#36b4b4" stop-opacity="1"></stop><stop offset="80%" stop-color="#39bdbd" stop-opacity="1"></stop></linearGradient></defs><defs><linearGradient id="grad1_6" x1="33.3%" y1="0%" x2="100%" y2="100%"><stop offset="20%" stop-color="#3cc6c6" stop-opacity="1"></stop><stop offset="80%" stop-color="#39bdbd" stop-opacity="1"></stop></linearGradient></defs><defs><linearGradient id="grad1_7" x1="33.3%" y1="0%" x2="100%" y2="100%"><stop offset="20%" stop-color="#3cc6c6" stop-opacity="1"></stop><stop offset="80%" stop-color="#3fcfcf" stop-opacity="1"></stop></linearGradient></defs><defs><linearGradient id="grad2_0" x1="0%" y1="0%" x2="66.7%" y2="100%"><stop offset="20%" stop-color="#2b9191" stop-opacity="1"></stop><stop offset="80%" stop-color="#2b9191" stop-opacity="1"></stop></linearGradient></defs><defs><linearGradient id="grad2_1" x1="0%" y1="0%" x2="66.7%" y2="100%"><stop offset="20%" stop-color="#2e9a9a" stop-opacity="1"></stop><stop offset="80%" stop-color="#2b9191" stop-opacity="1"></stop></linearGradient></defs><defs><linearGradient id="grad2_2" x1="0%" y1="0%" x2="66.7%" y2="100%"><stop offset="20%" stop-color="#2e9a9a" stop-opacity="1"></stop><stop offset="80%" stop-color="#31a2a2" stop-opacity="1"></stop></linearGradient></defs><defs><linearGradient id="grad2_3" x1="0%" y1="0%" x2="66.7%" y2="100%"><stop offset="20%" stop-color="#33abab" stop-opacity="1"></stop><stop offset="80%" stop-color="#31a2a2" stop-opacity="1"></stop></linearGradient></defs><defs><linearGradient id="grad2_4" x1="0%" y1="0%" x2="66.7%" y2="100%"><stop offset="20%" stop-color="#33abab" stop-opacity="1"></stop><stop offset="80%" stop-color="#36b4b4" stop-opacity="1"></stop></linearGradient></defs><defs><linearGradient id="grad2_5" x1="0%" y1="0%" x2="66.7%" y2="100%"><stop offset="20%" stop-color="#39bdbd" stop-opacity="1"></stop><stop offset="80%" stop-color="#36b4b4" stop-opacity="1"></stop></linearGradient></defs><defs><linearGradient id="grad2_6" x1="0%" y1="0%" x2="66.7%" y2="100%"><stop offset="20%" stop-color="#39bdbd" stop-opacity="1"></stop><stop offset="80%" stop-color="#3cc6c6" stop-opacity="1"></stop></linearGradient></defs><defs><linearGradient id="grad2_7" x1="0%" y1="0%" x2="66.7%" y2="100%"><stop offset="20%" stop-color="#3fcfcf" stop-opacity="1"></stop><stop offset="80%" stop-color="#3cc6c6" stop-opacity="1"></stop></linearGradient></defs><g transform="translate(900, 0)"><path d="M0 459.7C-45.4 446.7 -90.8 433.7 -136.9 421.3C-183 408.9 -229.9 397 -270.2 371.9C-310.5 346.8 -344.2 308.5 -367.3 266.9C-390.4 225.2 -402.9 180.4 -416.6 135.3C-430.2 90.3 -445 45.2 -459.7 0L0 0Z" fill="#3ecaca"></path><path d="M0 402.2C-39.7 390.9 -79.4 379.5 -119.8 368.7C-160.2 357.8 -201.2 347.4 -236.4 325.4C-271.7 303.5 -301.2 269.9 -321.4 233.5C-341.6 197.1 -352.6 157.8 -364.5 118.4C-376.4 79 -389.3 39.5 -402.2 0L0 0Z" fill="#3bc1c1"></path><path d="M0 344.8C-34 335 -68.1 325.3 -102.7 316C-137.3 306.7 -172.4 297.8 -202.7 278.9C-232.9 260.1 -258.1 231.3 -275.5 200.1C-292.8 168.9 -302.2 135.3 -312.4 101.5C-322.7 67.7 -333.7 33.9 -344.8 0L0 0Z" fill="#38b8b8"></path><path d="M0 287.3C-28.4 279.2 -56.7 271.1 -85.6 263.3C-114.4 255.6 -143.7 248.1 -168.9 232.4C-194.1 216.8 -215.1 192.8 -229.6 166.8C-244 140.8 -251.8 112.7 -260.4 84.6C-268.9 56.5 -278.1 28.2 -287.3 0L0 0Z" fill="#35afaf"></path><path d="M0 229.9C-22.7 223.4 -45.4 216.9 -68.4 210.7C-91.5 204.4 -115 198.5 -135.1 186C-155.2 173.4 -172.1 154.2 -183.6 133.4C-195.2 112.6 -201.5 90.2 -208.3 67.7C-215.1 45.2 -222.5 22.6 -229.9 0L0 0Z" fill="#32a7a7"></path><path d="M0 172.4C-17 167.5 -34 162.7 -51.3 158C-68.6 153.3 -86.2 148.9 -101.3 139.5C-116.4 130.1 -129.1 115.7 -137.7 100.1C-146.4 84.5 -151.1 67.6 -156.2 50.8C-161.3 33.9 -166.9 16.9 -172.4 0L0 0Z" fill="#2f9e9e"></path><path d="M0 114.9C-11.3 111.7 -22.7 108.4 -34.2 105.3C-45.8 102.2 -57.5 99.3 -67.6 93C-77.6 86.7 -86 77.1 -91.8 66.7C-97.6 56.3 -100.7 45.1 -104.1 33.8C-107.6 22.6 -111.2 11.3 -114.9 0L0 0Z" fill="#2c9595"></path><path d="M0 57.5C-5.7 55.8 -11.3 54.2 -17.1 52.7C-22.9 51.1 -28.7 49.6 -33.8 46.5C-38.8 43.4 -43 38.6 -45.9 33.4C-48.8 28.2 -50.4 22.5 -52.1 16.9C-53.8 11.3 -55.6 5.6 -57.5 0L0 0Z" fill="#2b9191"></path></g><g transform="translate(0, 600)"><path d="M0 -459.7C45.8 -445.9 91.6 -432 135.3 -416.6C179.1 -401.1 220.8 -384 262.2 -360.8C303.5 -337.6 344.4 -308.4 371.9 -270.2C399.5 -232 413.7 -185 426.1 -138.4C438.5 -91.9 449.1 -46 459.7 0L0 0Z" fill="#3ecaca"></path><path d="M0 -402.2C40.1 -390.1 80.1 -378 118.4 -364.5C156.7 -351 193.2 -336 229.4 -315.7C265.5 -295.4 301.3 -269.8 325.4 -236.4C349.5 -203 362 -161.8 372.8 -121.1C383.7 -80.4 393 -40.2 402.2 0L0 0Z" fill="#3bc1c1"></path><path d="M0 -344.8C34.3 -334.4 68.7 -324 101.5 -312.4C134.3 -300.8 165.6 -288 196.6 -270.6C227.6 -253.2 258.3 -231.3 278.9 -202.7C299.6 -174 310.2 -138.7 319.6 -103.8C328.9 -68.9 336.8 -34.5 344.8 0L0 0Z" fill="#38b8b8"></path><path d="M0 -287.3C28.6 -278.7 57.2 -270 84.6 -260.4C111.9 -250.7 138 -240 163.8 -225.5C189.7 -211 215.2 -192.7 232.4 -168.9C249.7 -145 258.5 -115.6 266.3 -86.5C274.1 -57.4 280.7 -28.7 287.3 0L0 0Z" fill="#35afaf"></path><path d="M0 -229.9C22.9 -222.9 45.8 -216 67.7 -208.3C89.6 -200.5 110.4 -192 131.1 -180.4C151.7 -168.8 172.2 -154.2 186 -135.1C199.7 -116 206.8 -92.5 213 -69.2C219.2 -46 224.5 -23 229.9 0L0 0Z" fill="#32a7a7"></path><path d="M0 -172.4C17.2 -167.2 34.3 -162 50.8 -156.2C67.2 -150.4 82.8 -144 98.3 -135.3C113.8 -126.6 129.1 -115.6 139.5 -101.3C149.8 -87 155.1 -69.4 159.8 -51.9C164.4 -34.5 168.4 -17.2 172.4 0L0 0Z" fill="#2f9e9e"></path><path d="M0 -114.9C11.4 -111.5 22.9 -108 33.8 -104.1C44.8 -100.3 55.2 -96 65.5 -90.2C75.9 -84.4 86.1 -77.1 93 -67.6C99.9 -58 103.4 -46.2 106.5 -34.6C109.6 -23 112.3 -11.5 114.9 0L0 0Z" fill="#2c9595"></path><path d="M0 -57.5C5.7 -55.7 11.4 -54 16.9 -52.1C22.4 -50.1 27.6 -48 32.8 -45.1C37.9 -42.2 43 -38.5 46.5 -33.8C49.9 -29 51.7 -23.1 53.3 -17.3C54.8 -11.5 56.1 -5.7 57.5 0L0 0Z" fill="#2b9191"></path></g></svg>